<svg width="273" height="48" viewBox="0 0 273 48" fill="none" xmlns="http://www.w3.org/2000/svg">
<mask id="mask0_2_171" style="mask-type:luminance" maskUnits="userSpaceOnUse" x="0" y="0" width="273" height="48">
<path d="M272.288 0H0V48H272.288V0Z" fill="white"/>
</mask>
<g mask="url(#mask0_2_171)">
<path d="M41.2585 28.5407C40.4526 29.0345 39.5092 29.1255 38.7942 28.72C37.8975 28.1793 37.3585 26.9655 37.3585 25.3021V20.2207C37.3585 17.7931 36.4178 16.0386 34.8034 15.5889C32.0695 14.7807 30.0067 18.1517 29.2448 19.4096L24.4041 27.1889V17.6111C24.3602 15.4069 23.6424 14.1049 22.2974 13.6993C21.4008 13.4289 20.0558 13.5641 18.7549 15.542L7.95141 32.8993C6.51571 30.1573 5.75386 27.0979 5.75386 23.9972C5.75386 13.52 14.1371 5.02069 24.4041 5.02069C34.6713 5.02069 43.0545 13.52 43.0545 23.9972V24.0883C43.1452 26.1103 42.5155 27.7297 41.2613 28.5407H41.2585ZM47.1773 24V23.909C47.1333 11.1834 36.9102 0.797241 24.4041 0.797241C11.8982 0.797241 1.6283 11.1863 1.6283 24C1.6283 36.8138 11.8488 47.2027 24.4014 47.2027C30.1854 47.2027 35.6533 44.9987 39.8668 40.9986C40.7194 40.1904 40.7635 38.8855 39.9575 38.0304C39.1957 37.1752 37.8948 37.131 37.0449 37.8952L37.0009 37.9393C33.5931 41.178 29.0221 43.0207 24.3134 43.0207C18.7989 43.0207 13.8674 40.5931 10.4598 36.7255L20.1879 21.0786V28.3172C20.1879 31.7793 21.5327 32.9048 22.6522 33.2193C23.7716 33.5337 25.4768 33.3103 27.314 30.3863L32.6498 21.7076C32.8285 21.4372 32.9634 21.1669 33.1421 20.9876V25.3931C33.1421 28.6317 34.443 31.2386 36.6846 32.4965C38.7006 33.6662 41.2585 33.531 43.3652 32.2262C45.9644 30.5186 47.356 27.5503 47.1745 23.9972L47.1773 24ZM78.9167 16.0855C79.4557 16.4 79.948 17.1641 79.948 17.84C79.948 18.9186 79.0514 19.818 78.02 19.818C77.7505 19.818 77.5278 19.7269 77.3022 19.6828C76.0921 18.7835 74.5683 18.1986 72.9539 18.1986C69.1446 18.1986 66.5427 21.302 66.5427 25.1669C66.5427 29.0317 69.1885 32.091 72.9539 32.091C74.8379 32.091 76.5403 31.3269 77.7945 30.1131C78.108 29.8897 78.5123 29.7545 78.9139 29.7545C79.9453 29.7545 80.7511 30.5628 80.7511 31.5973C80.7511 32.2704 80.3468 32.8552 79.8546 33.1696C78.0173 34.742 75.5502 35.7765 72.9951 35.7765C67.167 35.7765 62.4144 30.9655 62.4144 25.029C62.4144 19.0924 67.167 14.2814 72.9951 14.2814C75.1459 14.2372 77.2086 14.9103 78.9139 16.08L78.9167 16.0855ZM89.5853 20.582C93.5761 20.582 96.8931 23.9531 96.8931 28.1352C96.8931 32.3173 93.5322 35.8235 89.5853 35.8235C85.4158 35.8235 81.9641 32.3173 81.9641 28.1352C81.9641 23.9531 85.4158 20.582 89.5853 20.582ZM89.5414 32.0937C91.2907 32.0937 92.7703 30.4303 92.7703 28.1821C92.7703 25.9338 91.2907 24.4938 89.5414 24.4938C87.6574 24.4938 86.0896 25.8869 86.0896 28.1821C86.0896 30.4772 87.6574 32.0937 89.5414 32.0937ZM99.4042 33.4869V22.8745C99.4042 21.7048 100.301 20.7614 101.467 20.7614C102.633 20.7614 103.53 21.7048 103.53 22.8745V33.4869C103.53 34.6565 102.589 35.6 101.467 35.6C100.345 35.6 99.4042 34.6096 99.4042 33.4869ZM99.0906 16.7586C99.0906 15.3655 100.166 14.2869 101.467 14.2869C102.768 14.2869 103.887 15.4096 103.887 16.7586C103.887 18.1076 102.812 19.1862 101.467 19.1862C100.122 19.142 99.0906 18.0635 99.0906 16.7586ZM111.418 27.7297V33.4841C111.418 34.6538 110.477 35.5972 109.356 35.5972C108.233 35.5972 107.292 34.6538 107.292 33.4841V22.3779C107.292 21.4787 108.01 20.7587 108.906 20.7587C109.804 20.7587 110.475 21.5227 110.475 22.3779C112.133 20.8056 113.613 20.5793 115.002 20.5793C119.127 20.5793 120.964 23.6827 120.964 27.2331V33.4841C120.964 34.6538 120.024 35.5972 118.902 35.5972C117.779 35.5972 116.839 34.6538 116.839 33.4841V27.7297C116.839 25.931 116.616 24.4027 114.014 24.4027C112.177 24.4027 111.416 25.931 111.416 27.7297H111.418ZM134.326 29.9337C133.833 29.9337 133.52 29.7103 133.25 29.3931L128.454 24.1766V33.4841C128.454 34.6538 127.513 35.5972 126.391 35.5972C125.269 35.5972 124.328 34.6538 124.328 33.4841V15.051C124.463 14.7365 124.776 14.5104 125.089 14.5104C125.447 14.5104 125.761 14.8249 125.987 15.051L133.651 23.6856C133.874 23.9559 134.144 24.0911 134.323 24.0911C134.457 24.0911 134.772 23.9559 134.994 23.6856L142.659 15.051C142.882 14.8276 143.152 14.5104 143.556 14.5104C143.913 14.5104 144.227 14.7338 144.318 15.051V33.4869C144.318 34.6565 143.421 35.6 142.255 35.6C141.089 35.6 140.193 34.6565 140.193 33.4869V24.1793L135.396 29.3958C135.038 29.7103 134.725 29.9366 134.32 29.9366L134.326 29.9337ZM154.143 32.091C155.98 32.091 157.55 30.4276 157.55 28.1793C157.55 25.931 155.935 24.4469 154.143 24.4469C152.349 24.4469 150.869 25.9752 150.869 28.1793C150.869 30.3834 152.305 32.091 154.143 32.091ZM158.535 33.9807L158.443 33.4869C157.638 35.0593 155.082 35.7793 153.468 35.7793C149.613 35.7793 146.743 32.2731 146.743 28.091C146.743 23.909 149.656 20.538 153.691 20.538C154.362 20.538 156.694 20.7172 158.488 22.8303L158.578 22.3365C158.578 21.4372 159.249 20.7172 160.147 20.7172C161.043 20.7172 161.761 21.4814 161.761 22.3365V33.9365C161.761 34.8359 161.043 35.5559 160.147 35.5559C159.206 35.6 158.531 34.8359 158.531 33.9834L158.535 33.9807ZM173.104 24.4027H172.655C170.056 24.5379 169.561 26.0221 169.561 27.7297V33.4841C169.561 34.6538 168.62 35.5972 167.498 35.5972C166.376 35.5972 165.436 34.6538 165.436 33.4841V22.3779C165.436 21.4787 166.154 20.7587 167.05 20.7587C167.946 20.7587 168.617 21.5227 168.617 22.3779C170.141 20.9379 171.398 20.6235 172.652 20.5793H173.057C174.043 20.5793 174.941 21.4345 174.941 22.5131C174.984 23.5035 174.088 24.4027 173.104 24.4027ZM189.017 32.4965C189.196 32.811 189.33 33.1255 189.33 33.4869C189.33 34.5655 188.343 35.5559 187.268 35.5559C186.55 35.5559 185.923 35.0152 185.43 34.3862L180.678 28.8552V33.4428C180.678 34.6124 179.737 35.5559 178.615 35.5559C177.492 35.5559 176.553 34.6124 176.553 33.4428V16.5821C176.553 15.4124 177.449 14.4689 178.615 14.4689C179.781 14.4689 180.678 15.4124 180.678 16.5821V27.1035L185.43 21.8428C185.923 21.302 186.506 20.72 187.224 20.72C188.255 20.72 189.196 21.6635 189.196 22.742C189.196 23.0565 189.105 23.4151 188.926 23.6856L185.161 27.8235L189.017 32.4993V32.4965ZM197.086 24.4469C195.967 24.4469 194.127 25.0317 194.127 26.7863H200.091C200.046 25.0317 198.162 24.4469 197.086 24.4469ZM202.466 29.4373H194.127C194.127 31.9089 196.503 32.3144 197.535 32.3144C198.297 32.3144 199.373 32.1793 200.224 31.7738C200.494 31.5944 200.896 31.4593 201.3 31.4593C202.197 31.4593 202.959 32.2235 202.959 33.1669C202.959 33.7959 202.554 34.3365 202.062 34.6511C200.808 35.5945 199.15 35.8207 197.579 35.8207C193.409 35.8207 189.958 33.5724 189.958 28.3117C189.958 24.1737 192.065 20.5766 196.996 20.5766C200.987 20.5766 203.99 23.1834 204.078 27.8152C204.078 28.6704 203.36 29.4344 202.464 29.4344L202.466 29.4373ZM213.944 35.7765H212.825C209.686 35.7765 207.849 34.3835 207.849 29.4813V24.4H206.773C205.787 24.4 204.936 23.5007 204.936 22.5103C204.936 21.4317 205.833 20.5766 206.773 20.5766H207.849V16.6648C207.849 15.4951 208.746 14.5517 209.912 14.5517C211.078 14.5517 211.974 15.4951 211.974 16.6648V20.5766H213.677C214.664 20.5766 215.514 21.4317 215.514 22.5103C215.514 23.5007 214.617 24.4 213.677 24.4H211.974V28.6704C211.974 31.5035 212.109 32.0883 213.363 32.0883H213.946C214.934 32.0883 215.784 32.8965 215.784 33.9311C215.784 34.9656 214.931 35.7738 213.946 35.7738L213.944 35.7765ZM233.892 16.0828C234.431 16.3972 234.924 17.1614 234.924 17.8372C234.924 18.9159 234.027 19.8151 232.995 19.8151C232.727 19.8151 232.504 19.7241 232.277 19.68C231.068 18.7807 229.544 18.1959 227.929 18.1959C224.12 18.1959 221.518 21.2993 221.518 25.1642C221.518 29.0289 224.165 32.0883 227.929 32.0883C229.814 32.0883 231.516 31.3241 232.77 30.1104C233.083 29.8869 233.488 29.7517 233.889 29.7517C234.92 29.7517 235.726 30.56 235.726 31.5944C235.726 32.2676 235.323 32.8524 234.83 33.1669C232.993 34.7393 230.526 35.7738 227.97 35.7738C222.143 35.7738 217.39 30.9628 217.39 25.0262C217.39 19.0897 222.143 14.2787 227.97 14.2787C230.122 14.2345 232.228 14.9076 233.889 16.0772L233.892 16.0828ZM244.338 32.091C246.175 32.091 247.746 30.4276 247.746 28.1793C247.746 25.931 246.132 24.4469 244.338 24.4469C242.545 24.4469 241.066 25.9752 241.066 28.1793C241.066 30.3834 242.545 32.091 244.338 32.091ZM248.73 33.9807L248.64 33.4869C247.834 35.0593 245.279 35.7793 243.664 35.7793C239.808 35.7793 236.94 32.2731 236.94 28.091C236.94 23.909 239.853 20.538 243.887 20.538C244.558 20.538 246.891 20.7172 248.683 22.8303L248.775 22.3365C248.775 21.4372 249.446 20.7172 250.342 20.7172C251.238 20.7172 251.956 21.4814 251.956 22.3365V33.9365C251.956 34.8359 251.238 35.5559 250.342 35.5559C249.401 35.6 248.728 34.8359 248.728 33.9834L248.73 33.9807ZM263.211 32.091C265.048 32.091 266.484 30.3365 266.484 28.1793C266.484 26.0221 265.005 24.4469 263.211 24.4469C261.418 24.4469 259.804 25.931 259.804 28.1793C259.804 30.4276 261.371 32.091 263.211 32.091ZM259.804 34.5628V39.8235C259.804 40.9931 258.863 41.9366 257.74 41.9366C256.619 41.9366 255.678 40.9931 255.678 39.8235V22.3779C255.678 21.4787 256.396 20.7587 257.292 20.7587C258.189 20.7587 258.861 21.5227 258.861 22.5572C260.384 20.9848 262.268 20.5793 263.701 20.5793C267.691 20.5793 270.648 23.9503 270.648 28.1324C270.648 32.3144 267.824 35.8207 263.924 35.8207C262.713 35.7765 260.921 35.4151 259.798 34.5628H259.804Z" fill="white"/>
</g>
</svg>
