<svg width="177" height="57" viewBox="0 0 177 57" fill="none" xmlns="http://www.w3.org/2000/svg">
<path d="M126.85 21.9727C123.276 22.4091 120.641 24.403 119.672 27.379C119.006 29.4027 119.087 31.3272 119.925 33.2814C120.914 35.5927 123.044 37.2395 125.87 37.8644C126.688 38.0529 128.798 38.0628 129.646 37.9041C132.927 37.2692 135.218 35.2654 136.167 32.2299C136.389 31.5057 136.419 31.2875 136.419 29.9979C136.419 28.7083 136.389 28.4901 136.167 27.7659C135.228 24.7701 133.018 22.796 129.858 22.1413C129.202 22.0123 127.405 21.9131 126.85 21.9727ZM128.848 25.9109C130.029 26.2184 131.15 26.9723 131.665 27.8552C132.462 29.1845 132.432 30.9403 131.604 32.21C130.12 34.5016 126.729 34.8785 124.689 32.9739C122.993 31.3867 122.933 28.867 124.548 27.1509C125.628 26.02 127.344 25.5339 128.848 25.9109Z" fill="white"/>
<path d="M144.313 21.9727C140.74 22.4091 138.105 24.403 137.136 27.379C136.47 29.4027 136.551 31.3272 137.388 33.2814C138.378 35.5927 140.508 37.2395 143.334 37.8644C144.152 38.0529 146.262 38.0628 147.11 37.9041C150.39 37.2692 152.682 35.2654 153.631 32.2299C153.853 31.5057 153.883 31.2875 153.883 29.9979C153.883 28.7083 153.853 28.4901 153.631 27.7659C152.692 24.7701 150.481 22.796 147.322 22.1413C146.665 22.0123 144.869 21.9131 144.313 21.9727ZM146.322 25.9109C147.513 26.2184 148.624 26.9723 149.139 27.8552C149.936 29.1845 149.906 30.9403 149.078 32.21C147.594 34.5016 144.202 34.8785 142.163 32.9739C140.467 31.3867 140.407 28.867 142.022 27.1509C143.092 26.02 144.808 25.5339 146.322 25.9109Z" fill="white"/>
<path d="M167.834 22.0223C165.755 22.3199 164.19 23.6293 163.685 25.5141C163.201 27.2898 163.544 29.1051 164.513 29.988C165.088 30.5138 165.775 30.8213 167.662 31.4165C169.49 31.9918 169.903 32.2398 170.095 32.845C170.307 33.5394 169.782 34.3726 168.985 34.5909C168.551 34.7099 167.733 34.7099 167.188 34.581C166.592 34.4421 165.522 33.9262 165.068 33.5394C164.866 33.3509 164.634 33.212 164.594 33.212C164.553 33.212 164.321 33.5493 164.099 33.9659C163.786 34.5512 163.685 34.6802 163.665 34.5214L163.635 34.323H161.202H158.779V28.3115V22.3001H156.77H154.761V30.0079V37.7157H159.193H163.625V37.2891C163.625 37.0609 163.645 36.8725 163.665 36.8725C163.685 36.8725 164.049 37.0411 164.472 37.2296C165.785 37.8347 166.623 38.0133 168.248 38.0133C169.833 38.0133 170.58 37.8744 171.559 37.4081C172.336 37.0411 173.386 36.0193 173.739 35.3051C174.436 33.8766 174.537 31.9522 173.951 30.732C173.85 30.5039 173.507 30.0575 173.184 29.7499C172.498 29.0754 171.761 28.7083 169.873 28.1131C169.126 27.885 168.379 27.6072 168.208 27.508C167.602 27.141 167.481 26.3375 167.955 25.8316C168.783 24.9586 170.257 25.038 171.791 26.0399L172.094 26.2284L172.912 24.6908C173.346 23.8575 173.709 23.1532 173.689 23.1433C173.598 23.054 172.457 22.6076 171.811 22.4092C170.449 21.9925 169.015 21.8437 167.834 22.0223Z" fill="white"/>
<path d="M54.9756 27.8155V37.9735H58.6299C60.6387 37.9735 62.7384 37.914 63.2835 37.8545C67.7958 37.3089 71.1271 34.6206 72.1971 30.6724C72.5504 29.363 72.6312 27.0616 72.3788 25.6926C71.864 23.0341 70.4608 20.8914 68.3006 19.4431C67.3315 18.7883 66.4633 18.4312 65.0703 18.0543C63.98 17.7666 63.8084 17.7666 59.4677 17.7071L54.9857 17.6575L54.9756 27.8155ZM62.9504 21.804C65.787 22.3992 67.6747 24.7304 67.6747 27.6469C67.6646 29.5812 67.0589 31.2478 65.9283 32.3489C64.8078 33.4599 63.1422 33.9956 60.8204 34.0055H59.7201V27.8254V21.6453H60.9415C61.6078 21.6453 62.5062 21.7246 62.9504 21.804Z" fill="white"/>
<path d="M74.0848 27.8254V37.9735L82.7864 37.9636H91.4779L93.7189 34.8686C94.9606 33.1822 96.0003 31.7934 96.0306 31.7934C96.0811 31.7934 97.1208 33.1822 98.3524 34.8884L100.604 37.9834H103.43C104.975 37.9834 106.246 37.9438 106.246 37.914C106.246 37.8743 104.581 35.5927 102.572 32.8449L98.8975 27.8452L102.41 23.0242C104.349 20.3854 106.034 18.1138 106.145 17.9848C106.368 17.7666 106.368 17.7963 106.368 19.8299V21.8933H108.508H110.648V29.9384V37.9834H113.202H115.756V29.9384V21.8933L118.249 21.8734L120.732 21.8338L119.4 19.7704L118.067 17.7071L109.345 17.6971H100.614L98.3726 20.7922C97.1309 22.4786 96.0912 23.8674 96.0609 23.8872C96.0205 23.8872 94.9808 22.4984 93.7492 20.7922L91.4981 17.6971H82.8066H74.105V27.8254H74.0848ZM89.4388 22.7464C91.4375 25.4645 93.0729 27.746 93.0729 27.8155C93.0729 27.8849 91.4376 30.1864 89.4287 32.9243L85.7744 37.9041L85.7341 35.9598L85.7139 34.0155H82.2716H78.8293V31.7339V29.4622H81.6154H84.4016V27.5377V25.6133H81.6154H78.8293V23.6293V21.6453H82.2716H85.7139V19.7208C85.7139 18.6594 85.7341 17.7963 85.7643 17.7963C85.7946 17.7963 87.4401 20.0283 89.4388 22.7464Z" fill="white"/>
<path fill-rule="evenodd" clip-rule="evenodd" d="M18.9376 4.20606C15.7073 5.86269 13.0524 7.2614 13.0625 7.32092C13.0625 7.46972 20.8253 11.3286 21.0979 11.3187C21.219 11.3187 22.1275 10.902 23.1168 10.406L24.9136 9.50331L26.872 10.4953L28.8304 11.4873L32.0405 10.0687C36.8657 7.93596 37.3705 7.69788 37.2897 7.62844C37.1888 7.51932 35.4525 6.60669 30.7484 4.1763C28.4771 3.00575 26.2764 1.84511 25.8524 1.61695C25.4285 1.37888 25.0247 1.20032 24.954 1.20032C24.8834 1.20032 22.1679 2.54943 18.9376 4.20606ZM4.75458 11.4278L1.38296 13.134V20.6335C1.38296 24.7602 1.42334 28.133 1.48391 28.133C1.53438 28.133 3.1899 27.4287 5.16846 26.5656L8.75207 24.9983V17.0921L10.4984 18.0245C11.8511 18.7487 13.1937 19.4629 14.5464 20.1871L16.848 21.4072L17.8676 20.9509C18.5136 20.6632 19.1496 20.3756 19.7855 20.0879C20.2802 19.8597 21.4915 19.3241 22.4808 18.8975C23.4701 18.4709 24.3786 18.0345 24.5099 17.9353C24.6815 17.8063 22.5818 16.6655 16.7471 13.7193C12.3458 11.4972 8.60065 9.69179 8.42904 9.70171C8.25743 9.71163 6.6019 10.4854 4.75458 11.4278ZM37.8853 11.9039C35.5938 12.9257 33.7162 13.7986 33.7162 13.8482C33.7162 13.8978 34.9679 14.6319 36.4922 15.4751C38.0266 16.3183 39.2683 17.0524 39.2683 17.1119C39.2683 17.1714 37.9156 17.8162 36.2601 18.5404C34.6045 19.2745 30.4253 21.1295 26.9629 22.6671L15.3843 27.8155C12.4669 29.1051 9.8423 30.2757 9.54955 30.4046C3.60379 33.0533 1.95835 33.7873 1.73627 33.9163C1.51419 34.0453 1.46372 34.7793 1.42334 38.4795L1.37286 42.8938L4.38108 44.4017L7.38929 45.9095L11.5685 44.0545C13.86 43.0327 15.7477 42.1499 15.7477 42.0804C15.7477 42.011 15.3237 41.7431 14.8089 41.4753C14.294 41.2075 13.224 40.6123 12.4265 40.1559C11.6391 39.6996 10.8518 39.283 10.6802 39.2235C10.5085 39.1639 10.3672 39.0747 10.3672 39.0052C10.3672 38.9457 12.2044 38.0827 14.4556 37.1006C18.8165 35.1861 22.1477 33.708 29.3048 30.5237C32.5048 29.1051 35.7048 27.6767 38.915 26.2581C41.7314 25.0082 45.002 23.55 46.1831 23.0143L48.3333 22.0421L48.3838 17.5781L48.4342 13.1142L45.3856 11.5865C43.7099 10.7433 42.2664 10.0489 42.1957 10.0489C42.115 10.0489 40.1768 10.8921 37.8853 11.9039ZM47.5257 28.0139C47.0714 28.2322 46.1831 28.6389 45.5472 28.9166C44.9112 29.1944 43.6998 29.7301 42.862 30.107L41.3377 30.7915L41.3074 34.7099C41.2872 36.8625 41.2064 38.6184 41.1257 38.6084C40.944 38.5787 38.0872 37.1403 35.2102 35.6225C33.1307 34.5313 32.9995 34.4817 32.5149 34.7198C32.2323 34.8587 30.5465 35.6027 28.7698 36.3665C26.9931 37.1403 25.4789 37.8148 25.4083 37.8843C25.3376 37.9438 28.9111 39.8484 33.3629 42.1201L41.4386 46.2468L44.891 44.491C46.7888 43.5287 48.4039 42.6459 48.4746 42.5367C48.6462 42.2887 48.626 27.5874 48.4645 27.6072C48.3939 27.6171 47.9699 27.7957 47.5257 28.0139ZM28.4064 45.2647C27.8108 45.5127 27.2051 45.7706 26.6095 46.0286C24.8026 46.7924 25.1559 46.8221 23.0057 45.7706C21.5723 45.0663 20.9565 44.858 20.684 44.9572C20.4821 45.0366 18.7559 45.8004 16.8379 46.6535C14.93 47.5066 13.2947 48.2109 13.2139 48.2109C12.4063 48.2109 13.7489 48.9946 18.8972 51.544L24.9338 54.5399L27.4777 53.3098C28.8708 52.6352 31.6973 51.2762 33.7364 50.2941C35.7856 49.3121 37.431 48.4887 37.4008 48.449C37.3705 48.4193 35.6544 47.5562 33.585 46.5246L29.8297 44.6596L28.4064 45.2647Z" fill="white"/>
</svg>
