<svg width="36" height="35" viewBox="0 0 36 35" fill="none" xmlns="http://www.w3.org/2000/svg">
<circle cx="18.4623" cy="17.4704" r="17.4704" fill="black"/>
<g clip-path="url(#clip0_2_714)">
<path fill-rule="evenodd" clip-rule="evenodd" d="M16.0368 8.47278C14.7404 9.12783 13.6797 9.6822 13.68 9.70477C13.6806 9.76293 16.7915 11.2912 16.9019 11.2875C16.9521 11.2859 17.3164 11.1232 17.7115 10.926L18.43 10.5676L19.2146 10.9588L19.9992 11.3501L21.2841 10.7901C23.2201 9.9462 23.4212 9.85372 23.3897 9.8227C23.3479 9.78144 22.6535 9.41964 20.7695 8.45748C19.8589 7.99245 18.9752 7.53656 18.8055 7.44425C18.6357 7.35186 18.4738 7.27764 18.4455 7.27907C18.4172 7.28051 17.3332 7.81764 16.0368 8.47269L16.0368 8.47278ZM10.3506 11.3289L9.00103 12.0052V14.9729C9.00103 16.6052 9.01872 17.9407 9.04051 17.9407C9.06229 17.9407 9.72618 17.6614 10.516 17.3202L11.9521 16.6997V13.5715L12.6539 13.9424C13.1946 14.2279 13.7358 14.5128 14.2772 14.7972L15.1987 15.2811L15.6087 15.1012C15.8659 14.9882 16.1225 14.8742 16.3786 14.759C16.5765 14.6695 17.0624 14.4573 17.4583 14.2872C17.8542 14.117 18.2207 13.9458 18.2726 13.9069C18.3416 13.855 17.5 13.4039 15.1594 12.238C13.3952 11.3592 11.8952 10.6429 11.826 10.6464C11.7568 10.6499 11.0929 10.9569 10.3506 11.3288V11.3289ZM23.6328 11.5188C22.7136 11.9212 21.9609 12.2667 21.9601 12.2864C21.9593 12.306 22.4602 12.595 23.0734 12.9284C23.6864 13.2619 24.1881 13.5525 24.1881 13.5744C24.1881 13.5963 23.6456 13.8512 22.9825 14.1412C22.3194 14.4311 20.6433 15.1653 19.2577 15.7729L14.6151 17.8084C13.4473 18.3205 12.3946 18.7821 12.2758 18.8343C9.89045 19.8817 9.23484 20.1723 9.14482 20.2222C9.05427 20.2724 9.03379 20.5642 9.01767 22.0289L8.99841 23.7758L10.2053 24.3722L11.4121 24.9687L13.0856 24.2361C14.0061 23.8333 14.7591 23.4825 14.7591 23.4567C14.7591 23.4308 14.589 23.3234 14.3812 23.2177C14.1734 23.1119 13.7442 22.8779 13.4275 22.6975C13.1108 22.517 12.7951 22.3515 12.7257 22.3295C12.6564 22.3076 12.6007 22.2693 12.6019 22.2443C12.603 22.2193 13.3399 21.8798 14.2393 21.4897C15.9863 20.732 17.3232 20.1481 20.1934 18.8891C21.4768 18.3262 22.7605 17.7639 24.0442 17.2016C25.1724 16.7076 26.4842 16.1307 26.9592 15.9195L27.823 15.5357L27.8421 13.7689L27.8614 12.0022L26.6373 11.3928C25.964 11.0577 25.3886 10.7843 25.3584 10.7853C25.3283 10.7862 24.5516 11.1163 23.6326 11.5189L23.6328 11.5188ZM27.4951 17.8926C27.3147 17.978 26.9585 18.138 26.7034 18.2481C26.4483 18.3582 25.9643 18.57 25.6277 18.719L25.016 18.9896L25.002 20.5407C24.9943 21.3937 24.9619 22.0879 24.93 22.0834C24.8576 22.0729 23.7109 21.5025 22.5583 20.9034C21.7264 20.471 21.6741 20.4538 21.4787 20.5478C21.3656 20.6021 20.6901 20.896 19.9775 21.2009C19.2649 21.5058 18.6587 21.7752 18.6302 21.7995C18.6018 21.8239 20.0358 22.5778 21.8172 23.4752L25.056 25.1066L26.4395 24.4123C27.2004 24.0306 27.8474 23.6823 27.8772 23.6385C27.9443 23.54 27.9385 17.7236 27.8713 17.7314C27.8447 17.7346 27.6754 17.807 27.495 17.8925L27.4951 17.8926ZM19.8336 24.7196C19.5936 24.8197 19.3537 24.9199 19.1138 25.0203C18.3896 25.3243 18.5314 25.3343 17.6697 24.9182C17.0958 24.6411 16.8484 24.5556 16.741 24.5971C16.6605 24.6282 15.9672 24.9308 15.2004 25.2694C14.4336 25.608 13.7796 25.8851 13.7471 25.8851C13.4254 25.8851 13.9603 26.195 16.0241 27.2049L18.4445 28.3891L19.4629 27.9014C20.023 27.6332 21.1528 27.096 21.9736 26.7078C22.7942 26.3195 23.4556 25.9917 23.4432 25.9793C23.4307 25.967 22.7431 25.6244 21.915 25.2182L20.4094 24.4795L19.8336 24.7198V24.7196Z" fill="url(#paint0_linear_2_714)"/>
</g>
<defs>
<linearGradient id="paint0_linear_2_714" x1="3.08394" y1="72.494" x2="32.0074" y2="70.521" gradientUnits="userSpaceOnUse">
<stop stop-color="#797979"/>
<stop offset="0.02" stop-color="#919191"/>
<stop offset="0.07" stop-color="#B8B8B8"/>
<stop offset="0.11" stop-color="#D7D7D7"/>
<stop offset="0.15" stop-color="#EDEDED"/>
<stop offset="0.19" stop-color="#FAFAFA"/>
<stop offset="0.22" stop-color="white"/>
<stop offset="0.28" stop-color="#F9F9F9"/>
<stop offset="0.35" stop-color="#E9E9E9"/>
<stop offset="0.42" stop-color="#CFCFCF"/>
<stop offset="0.45" stop-color="#C2C2C2"/>
<stop offset="0.57" stop-color="#A3A3A3"/>
<stop offset="0.77" stop-color="#E4E4E4"/>
<stop offset="0.84" stop-color="white"/>
<stop offset="0.86" stop-color="#F9F9F9"/>
<stop offset="0.9" stop-color="#E9E9E9"/>
<stop offset="0.94" stop-color="#CECECE"/>
<stop offset="0.98" stop-color="#AAAAAA"/>
<stop offset="1" stop-color="#909090"/>
</linearGradient>
<clipPath id="clip0_2_714">
<rect width="18.9262" height="21.11" fill="white" transform="translate(8.99908 7.27917)"/>
</clipPath>
</defs>
</svg>
