<svg width="35" height="35" viewBox="0 0 35 35" fill="none" xmlns="http://www.w3.org/2000/svg">
<circle cx="17.5296" cy="17.4704" r="17.4704" fill="black"/>
<path d="M11.1502 16.9323C11.1502 16.421 11.5648 16.0056 12.0752 16.0056H12.0791L13.6208 16.0109C14.1324 16.0109 14.5471 16.4263 14.5471 16.9389V22.7786C14.7212 22.7266 14.9431 22.672 15.1877 22.6148C15.5359 22.5322 15.783 22.2207 15.783 21.8625V14.6196C15.783 14.107 16.1977 13.6916 16.7094 13.6916H18.255C18.7666 13.6916 19.1813 14.107 19.1813 14.6196V21.3419C19.1813 21.3419 19.568 21.1848 19.9441 21.0264C20.2298 20.9052 20.4159 20.6243 20.4159 20.3141V12.3003C20.4159 11.7877 20.8306 11.3723 21.3422 11.3723H22.8865C23.3982 11.3723 23.8128 11.7877 23.8128 12.3003V18.8988C25.1511 17.9269 26.5093 16.7579 27.5858 15.3519C27.9034 14.9378 27.9925 14.3906 27.8224 13.8966C25.8462 8.19283 19.6305 5.17849 13.9397 7.15964C8.249 9.1408 5.24016 15.3692 7.2177 21.0703C7.44097 21.7134 7.72405 22.3339 8.06161 22.925C8.33007 23.3897 8.84438 23.656 9.37731 23.608C9.66969 23.5827 10.0325 23.5455 10.4658 23.4949C10.8551 23.4496 11.1489 23.1194 11.1489 22.728V16.9323" fill="#FFBF00"/>
<path d="M11.1502 16.9323C11.1502 16.421 11.5648 16.0056 12.0752 16.0056H12.0791L13.6208 16.0109C14.1324 16.0109 14.5471 16.4263 14.5471 16.9389V22.7786C14.7212 22.7266 14.9431 22.672 15.1877 22.6148C15.5359 22.5322 15.783 22.2207 15.783 21.8625V14.6196C15.783 14.107 16.1977 13.6916 16.7094 13.6916H18.255C18.7666 13.6916 19.1813 14.107 19.1813 14.6196V21.3419C19.1813 21.3419 19.568 21.1848 19.9441 21.0264C20.2298 20.9052 20.4159 20.6243 20.4159 20.3141V12.3003C20.4159 11.7877 20.8306 11.3723 21.3422 11.3723H22.8865C23.3982 11.3723 23.8128 11.7877 23.8128 12.3003V18.8988C25.1511 17.9269 26.5093 16.7579 27.5858 15.3519C27.9034 14.9378 27.9925 14.3906 27.8224 13.8966C25.8462 8.19283 19.6305 5.17849 13.9397 7.15964C8.249 9.1408 5.24016 15.3692 7.2177 21.0703C7.44097 21.7134 7.72405 22.3339 8.06161 22.925C8.33007 23.3897 8.84438 23.656 9.37731 23.608C9.66969 23.5827 10.0325 23.5455 10.4658 23.4949C10.8551 23.4496 11.1489 23.1194 11.1489 22.728V16.9323" fill="url(#paint0_linear_2_718)"/>
<path d="M11.1502 16.9323C11.1502 16.421 11.5648 16.0056 12.0752 16.0056H12.0791L13.6208 16.0109C14.1324 16.0109 14.5471 16.4263 14.5471 16.9389V22.7786C14.7212 22.7266 14.9431 22.672 15.1877 22.6148C15.5359 22.5322 15.783 22.2207 15.783 21.8625V14.6196C15.783 14.107 16.1977 13.6916 16.7094 13.6916H18.255C18.7666 13.6916 19.1813 14.107 19.1813 14.6196V21.3419C19.1813 21.3419 19.568 21.1848 19.9441 21.0264C20.2298 20.9052 20.4159 20.6243 20.4159 20.3141V12.3003C20.4159 11.7877 20.8306 11.3723 21.3422 11.3723H22.8865C23.3982 11.3723 23.8128 11.7877 23.8128 12.3003V18.8988C25.1511 17.9269 26.5093 16.7579 27.5858 15.3519C27.9034 14.9378 27.9925 14.3906 27.8224 13.8966C25.8462 8.19283 19.6305 5.17849 13.9397 7.15964C8.249 9.1408 5.24016 15.3692 7.2177 21.0703C7.44097 21.7134 7.72405 22.3339 8.06161 22.925C8.33007 23.3897 8.84438 23.656 9.37731 23.608C9.66969 23.5827 10.0325 23.5455 10.4658 23.4949C10.8551 23.4496 11.1489 23.1194 11.1489 22.728V16.9323" fill="url(#paint1_linear_2_718)"/>
<path d="M11.1185 26.2964C15.9919 29.8487 22.8163 28.7689 26.3607 23.8879C27.7176 22.0186 28.4486 19.7671 28.4486 17.4558C28.4486 17.2041 28.4366 16.9552 28.4207 16.7075C24.4337 22.6643 17.0724 25.4496 11.1185 26.2978" fill="white"/>
<defs>
<linearGradient id="paint0_linear_2_718" x1="2.1134" y1="23.3288" x2="6.13938" y2="-9.94921" gradientUnits="userSpaceOnUse">
<stop stop-color="#9F7233"/>
<stop offset="0.722114" stop-color="#F0D47A"/>
<stop offset="1" stop-color="#9F7233"/>
</linearGradient>
<linearGradient id="paint1_linear_2_718" x1="-0.0451679" y1="59.262" x2="32.3605" y2="56.1845" gradientUnits="userSpaceOnUse">
<stop stop-color="#797979"/>
<stop offset="0.02" stop-color="#919191"/>
<stop offset="0.07" stop-color="#B8B8B8"/>
<stop offset="0.11" stop-color="#D7D7D7"/>
<stop offset="0.15" stop-color="#EDEDED"/>
<stop offset="0.19" stop-color="#FAFAFA"/>
<stop offset="0.22" stop-color="white"/>
<stop offset="0.28" stop-color="#F9F9F9"/>
<stop offset="0.35" stop-color="#E9E9E9"/>
<stop offset="0.42" stop-color="#CFCFCF"/>
<stop offset="0.45" stop-color="#C2C2C2"/>
<stop offset="0.57" stop-color="#A3A3A3"/>
<stop offset="0.77" stop-color="#E4E4E4"/>
<stop offset="0.84" stop-color="white"/>
<stop offset="0.86" stop-color="#F9F9F9"/>
<stop offset="0.9" stop-color="#E9E9E9"/>
<stop offset="0.94" stop-color="#CECECE"/>
<stop offset="0.98" stop-color="#AAAAAA"/>
<stop offset="1" stop-color="#909090"/>
</linearGradient>
</defs>
</svg>
