<svg width="243" height="50" viewBox="0 0 243 50" fill="none" xmlns="http://www.w3.org/2000/svg">
<g clip-path="url(#clip0_203_6)">
<path fill-rule="evenodd" clip-rule="evenodd" d="M53.7172 2.23571C50.599 2.23571 50.0474 3.24107 46.8316 4.10179C48.0838 1.67321 50.5546 0 53.4334 0C56.1632 0 58.5258 1.50357 59.833 3.725C58.2136 2.85893 56.1968 2.23571 53.7172 2.23571ZM14.5516 4.03571C15.8145 1.64464 18.264 0 21.1179 0C23.947 0 26.3806 1.61786 27.6523 3.975C24.8215 3.14643 24.19 2.23571 21.2208 2.23571C18.4503 2.23571 16.2579 3.0125 14.5516 4.03571Z" fill="white"/>
<path d="M53.7172 2.23571C50.599 2.23571 50.0474 3.24107 46.8316 4.10179C48.0838 1.67321 50.5546 0 53.4334 0C56.1632 0 58.5258 1.50357 59.833 3.725C58.2136 2.85893 56.1968 2.23571 53.7172 2.23571ZM14.5516 4.03571C15.8145 1.64464 18.264 0 21.1179 0C23.947 0 26.3806 1.61786 27.6523 3.975C24.8215 3.14643 24.19 2.23571 21.2208 2.23571C18.4503 2.23571 16.2579 3.0125 14.5516 4.03571Z" fill="white"/>
<path fill-rule="evenodd" clip-rule="evenodd" d="M67.4529 24.4554C65.3581 21.0036 61.6191 18.6947 57.3409 18.6947C51.3528 18.6947 46.413 23.2072 45.5864 29.0733L37.2961 30.8233V30.7751L28.956 29.0179C28.1046 23.1786 23.1666 18.6947 17.1821 18.6947C12.9163 18.6947 9.18256 20.9804 7.07715 24.4072L3.47827 23.6483L9.63664 10.5965C9.63664 10.5965 12.8364 3.7572 21.0984 3.7572C25.3837 3.7572 24.7807 5.65542 33.032 6.45363C33.032 10.7768 37.2961 10.9804 37.2961 10.9804V10.9947C37.2961 10.9947 41.5583 10.7893 41.5583 6.45899C49.8115 5.65899 49.2066 3.7572 53.4937 3.7572C61.7557 3.7572 64.9555 10.6072 64.9555 10.6072L71.1121 23.684L67.4529 24.4554ZM37.3315 21.7626C35.6625 21.7626 34.3109 23.1376 34.3109 24.8322C34.3109 26.5268 35.6625 27.9018 37.3315 27.9018C38.9988 27.9018 40.3522 26.5268 40.3522 24.8322C40.3522 23.1376 38.9988 21.7626 37.3315 21.7626Z" fill="white"/>
<path d="M67.4529 24.4554C65.3581 21.0036 61.6191 18.6947 57.3409 18.6947C51.3528 18.6947 46.413 23.2072 45.5864 29.0733L37.2961 30.8233V30.7751L28.956 29.0179C28.1046 23.1786 23.1666 18.6947 17.1821 18.6947C12.9163 18.6947 9.18256 20.9804 7.07715 24.4072L3.47827 23.6483L9.63664 10.5965C9.63664 10.5965 12.8364 3.7572 21.0984 3.7572C25.3837 3.7572 24.7807 5.65542 33.032 6.45363C33.032 10.7768 37.2961 10.9804 37.2961 10.9804V10.9947C37.2961 10.9947 41.5583 10.7893 41.5583 6.45899C49.8115 5.65899 49.2066 3.7572 53.4937 3.7572C61.7557 3.7572 64.9555 10.6072 64.9555 10.6072L71.1121 23.684L67.4529 24.4554ZM37.3315 21.7626C35.6625 21.7626 34.3109 23.1376 34.3109 24.8322C34.3109 26.5268 35.6625 27.9018 37.3315 27.9018C38.9988 27.9018 40.3522 26.5268 40.3522 24.8322C40.3522 23.1376 38.9988 21.7626 37.3315 21.7626Z" fill="white"/>
<path fill-rule="evenodd" clip-rule="evenodd" d="M42.5055 32.3643C42.5055 32.3643 39.8857 31.9803 37.2961 31.9803C34.6763 31.9803 32.0849 32.3643 32.0849 32.3643L27.349 19.0732C27.349 19.0732 32.3155 18.2053 37.2961 18.2053C42.2607 18.2053 47.2413 19.0732 47.2413 19.0732L42.5055 32.3643ZM37.3315 21.7625C35.6625 21.7625 34.3109 23.1375 34.3109 24.8321C34.3109 26.5268 35.6625 27.9018 37.3315 27.9018C38.9988 27.9018 40.3522 26.5268 40.3522 24.8321C40.3522 23.1375 38.9988 21.7625 37.3315 21.7625Z" fill="white"/>
<path fill-rule="evenodd" clip-rule="evenodd" d="M37.3032 29.2965C34.9157 29.2965 32.9806 27.3108 32.9806 24.8608C32.9806 22.4108 34.9157 20.425 37.3032 20.425C39.6906 20.425 41.6275 22.4108 41.6275 24.8608C41.6275 27.3108 39.6906 29.2965 37.3032 29.2965ZM37.3315 21.7625C35.6625 21.7625 34.3109 23.1375 34.3109 24.8322C34.3109 26.5268 35.6625 27.9018 37.3315 27.9018C38.9988 27.9018 40.3522 26.5268 40.3522 24.8322C40.3522 23.1375 38.9988 21.7625 37.3315 21.7625Z" fill="white"/>
<path fill-rule="evenodd" clip-rule="evenodd" d="M28.9596 8.09106V16.6643H45.6308V8.09106L43.4527 8.57321C43.4527 8.57321 41.7215 13.0036 37.2961 13.0036C32.8689 13.0036 31.1377 8.57321 31.1377 8.57321L28.9596 8.09106Z" fill="white"/>
<path fill-rule="evenodd" clip-rule="evenodd" d="M57.3409 46.4285C48.8465 46.4285 41.9592 39.4196 41.9592 30.775C41.9592 22.1303 48.8465 15.1232 57.3409 15.1232C65.8353 15.1232 72.7226 22.1303 72.7226 30.775C72.7226 39.4196 65.8353 46.4285 57.3409 46.4285ZM57.3409 18.6946C50.7746 18.6946 45.4516 24.116 45.4516 30.8035C45.4516 37.491 50.7746 42.9125 57.3409 42.9125C63.9072 42.9125 69.2302 37.491 69.2302 30.8035C69.2302 24.116 63.9072 18.6946 57.3409 18.6946Z" fill="white"/>
<path fill-rule="evenodd" clip-rule="evenodd" d="M57.3409 39.509C52.6122 39.509 48.7774 35.6108 48.7774 30.8036C48.7774 29.7179 48.9973 28.6893 49.3538 27.7304C49.7707 28.2643 50.3844 28.6268 51.1045 28.6268C51.711 28.6231 52.2913 28.377 52.7177 27.9427C53.1441 27.5084 53.3817 26.9214 53.3784 26.3108C53.3784 25.3108 52.747 24.4768 51.8743 24.1536C53.3607 22.8893 55.2515 22.0983 57.3409 22.0983C62.0714 22.0983 65.9044 25.9965 65.9044 30.8036C65.9044 35.6108 62.0714 39.509 57.3409 39.509ZM57.3409 29.1858C56.9222 29.1855 56.5206 29.3527 56.2244 29.6506C55.9282 29.9485 55.7616 30.3527 55.7614 30.7742C55.7612 31.1957 55.9273 31.6 56.2231 31.8982C56.519 32.1964 56.9205 32.3641 57.3391 32.3643C57.5464 32.3645 57.7517 32.3235 57.9433 32.2437C58.1349 32.1639 58.309 32.047 58.4556 31.8995C58.6023 31.752 58.7187 31.5768 58.7981 31.3841C58.8776 31.1913 58.9185 30.9847 58.9186 30.7759C58.9187 30.5672 58.878 30.3605 58.7988 30.1677C58.7196 29.9748 58.6034 29.7995 58.4569 29.6519C58.3104 29.5042 58.1364 29.3871 57.9449 29.3071C57.7535 29.2271 57.5482 29.1859 57.3409 29.1858Z" fill="white"/>
<path fill-rule="evenodd" clip-rule="evenodd" d="M17.1554 46.4285C8.66109 46.4285 1.77372 39.4196 1.77372 30.775C1.77372 22.1303 8.66109 15.1232 17.1554 15.1232C25.6498 15.1232 32.5372 22.1303 32.5372 30.775C32.5372 39.4196 25.6498 46.4285 17.1554 46.4285ZM17.1821 18.6946C10.6015 18.6946 5.26618 24.116 5.26618 30.8035C5.26618 37.491 10.6015 42.9125 17.1821 42.9125C23.7643 42.9125 29.0997 37.491 29.0997 30.8035C29.0997 24.116 23.7643 18.6946 17.1821 18.6946Z" fill="white"/>
<path fill-rule="evenodd" clip-rule="evenodd" d="M17.1821 39.509C12.4373 39.509 8.59191 35.6108 8.59191 30.8036C8.59191 29.6983 8.8154 28.6483 9.18611 27.6751C9.60116 28.2393 10.2308 28.6268 10.974 28.6268C11.5138 28.6235 12.0351 28.4281 12.4456 28.0752C12.8562 27.7222 13.1295 27.2346 13.2174 26.6983C13.3053 26.1621 13.202 25.6119 12.9259 25.1449C12.6497 24.6779 12.2185 24.3243 11.7083 24.1465C13.1983 22.8858 15.0908 22.0983 17.1821 22.0983C21.9285 22.0983 25.774 25.9965 25.774 30.8036C25.774 35.6108 21.9285 39.509 17.1821 39.509ZM17.1821 29.1858C16.9765 29.1874 16.7732 29.2298 16.5839 29.3106C16.3946 29.3914 16.223 29.5089 16.0788 29.6565C15.9347 29.8041 15.8209 29.9789 15.7439 30.1708C15.6668 30.3627 15.6282 30.5681 15.63 30.7751C15.63 31.6536 16.3253 32.3661 17.1821 32.3661C17.3877 32.3643 17.591 32.3216 17.7803 32.2406C17.9696 32.1597 18.1413 32.042 18.2854 31.8942C18.4295 31.7465 18.5433 31.5716 18.6203 31.3796C18.6973 31.1875 18.7359 30.9821 18.7341 30.7751C18.7359 30.5681 18.6973 30.3627 18.6202 30.1708C18.5432 29.9789 18.4294 29.8041 18.2853 29.6565C18.1411 29.5089 17.9695 29.3914 17.7802 29.3106C17.5909 29.2298 17.3876 29.1874 17.1821 29.1858Z" fill="white"/>
<path fill-rule="evenodd" clip-rule="evenodd" d="M241.611 21.5125H238.837V28.6929C238.837 29.6232 239.02 30.3054 239.383 30.7393C239.749 31.175 240.304 31.4232 241.051 31.4822L241.835 31.5411C242.246 31.5804 242.541 31.6947 242.718 31.8822C242.895 32.0715 242.984 32.3322 242.984 32.6679C242.993 32.8434 242.958 33.0185 242.882 33.1768C242.806 33.3351 242.692 33.4714 242.549 33.5732C242.26 33.7822 241.835 33.8661 241.274 33.825L240.519 33.7661C239.006 33.6482 237.876 33.159 237.129 32.2982C236.382 31.4375 236.008 30.1661 236.008 28.4857V21.5125H234.327C233.505 21.5125 233.094 21.1268 233.094 20.3554C233.094 19.9982 233.202 19.7179 233.417 19.509C233.631 19.3018 233.935 19.1982 234.327 19.1982H236.008V16.1411C236.008 15.6875 236.134 15.3304 236.386 15.0732C236.638 14.8161 236.978 14.6875 237.409 14.6875C237.838 14.6875 238.184 14.8161 238.445 15.0732C238.708 15.3304 238.837 15.6875 238.837 16.1411V19.1982H241.611C242.003 19.1982 242.306 19.3018 242.521 19.509C242.63 19.6196 242.716 19.7521 242.771 19.8979C242.827 20.0436 242.852 20.1994 242.844 20.3554C242.844 20.7304 242.736 21.0179 242.521 21.2161C242.306 21.4143 242.003 21.5125 241.611 21.5125ZM228.36 33.825C228.184 33.8323 228.009 33.8033 227.845 33.7397C227.682 33.6761 227.532 33.5794 227.407 33.4554C227.164 33.2072 227.044 32.8768 227.044 32.4607V31.334C226.614 32.1643 226.022 32.7982 225.265 33.2322C224.492 33.6722 223.617 33.8977 222.73 33.8857C219.404 33.8857 217.742 31.9465 217.742 28.0697V20.3554C217.742 19.9 217.868 19.5447 218.12 19.2875C218.374 19.0304 218.723 18.9018 219.172 18.9018C219.601 18.9018 219.942 19.0304 220.193 19.2875C220.445 19.5447 220.571 19.9 220.571 20.3554V28.0393C220.571 29.2072 220.797 30.0679 221.245 30.6215C221.692 31.175 222.384 31.4518 223.317 31.4518C224.418 31.4518 225.302 31.0768 225.965 30.325C226.629 29.5732 226.96 28.5732 226.96 27.3286V20.3554C226.96 19.9197 227.09 19.5697 227.352 19.3018C227.613 19.034 227.959 18.9018 228.388 18.9018C228.817 18.9018 229.158 19.0304 229.412 19.2875C229.663 19.5447 229.789 19.9 229.789 20.3554V32.4322C229.797 32.6182 229.766 32.8038 229.698 32.9772C229.631 33.1505 229.528 33.3079 229.397 33.4393C229.135 33.6965 228.789 33.825 228.36 33.825ZM210.08 32.9661C209.062 33.5786 207.882 33.8857 206.536 33.8857C205.191 33.8857 204.01 33.5786 202.992 32.9661C201.967 32.3444 201.148 31.4301 200.64 30.3393C200.088 29.2018 199.813 27.8822 199.813 26.3786C199.813 24.8554 200.088 23.525 200.64 22.3875C201.148 21.2968 201.966 20.383 202.992 19.7625C204.01 19.1482 205.191 18.8411 206.536 18.8411C207.882 18.8411 209.062 19.1482 210.08 19.7625C211.105 20.3835 211.924 21.2971 212.433 22.3875C212.985 23.525 213.26 24.8554 213.26 26.3786C213.26 27.8822 212.985 29.2018 212.433 30.3393C211.924 31.4299 211.105 32.344 210.08 32.9661ZM209.393 22.5661C208.721 21.6857 207.769 21.2447 206.536 21.2447C205.303 21.2447 204.351 21.6857 203.678 22.5661C203.006 23.4465 202.671 24.7161 202.671 26.3786C202.671 28.0607 203.003 29.3357 203.664 30.2054C204.328 31.0768 205.285 31.5107 206.536 31.5107C207.788 31.5107 208.744 31.0768 209.407 30.2054C210.071 29.3357 210.403 28.0607 210.403 26.3786C210.403 24.7161 210.067 23.4465 209.393 22.5661ZM191.802 31.4822C192.362 31.4822 192.855 31.3929 193.286 31.2143C193.715 31.0375 194.153 30.8 194.602 30.5018C194.8 30.3694 195.006 30.2506 195.219 30.1465C195.393 30.0558 195.585 30.0052 195.78 29.9982C196.041 29.9982 196.255 30.1125 196.424 30.3393C196.598 30.5859 196.687 30.8834 196.676 31.1857C196.676 31.4625 196.605 31.7143 196.465 31.9411C196.326 32.1697 196.087 32.4018 195.752 32.6393C195.153 33.0531 194.49 33.3639 193.79 33.559C193.053 33.7753 192.289 33.8854 191.521 33.8857C190.195 33.8857 189.033 33.5786 188.032 32.9661C187.034 32.3518 186.259 31.4822 185.707 30.3536C185.157 29.2268 184.88 27.9215 184.88 26.4375C184.88 24.934 185.166 23.609 185.735 22.4625C186.264 21.3598 187.096 20.4327 188.132 19.7911C189.159 19.159 190.335 18.8411 191.661 18.8411C192.371 18.8411 193.086 18.95 193.804 19.1679C194.522 19.3857 195.163 19.6822 195.723 20.059C196.321 20.4947 196.619 20.9982 196.619 21.5715C196.63 21.8738 196.541 22.1713 196.367 22.4179C196.296 22.5235 196.2 22.6099 196.087 22.6694C195.975 22.7289 195.85 22.7596 195.723 22.759C195.547 22.757 195.374 22.711 195.219 22.625C194.998 22.5026 194.782 22.3691 194.574 22.225C194.164 21.9405 193.728 21.6971 193.272 21.4982C192.812 21.3192 192.321 21.233 191.828 21.2447C190.558 21.2447 189.574 21.7 188.873 22.6107C188.172 23.5197 187.823 24.7857 187.823 26.409C187.823 28.0304 188.169 29.2822 188.859 30.1607C189.551 31.0411 190.532 31.4822 191.802 31.4822ZM173.702 22.0161C175.347 22.4125 176.677 22.8232 177.695 23.2482C178.713 23.6732 179.526 24.2572 180.132 24.9982C180.739 25.7411 181.044 26.6947 181.044 27.8625C181.044 29.0482 180.73 30.1018 180.104 31.0215C179.479 31.9411 178.601 32.6536 177.472 33.159C176.342 33.6625 175.038 33.9143 173.562 33.9143C172.143 33.9143 170.794 33.7072 169.515 33.2911C168.236 32.8768 167.212 32.3036 166.448 31.5715C166.275 31.421 166.137 31.2337 166.045 31.023C165.953 30.8123 165.909 30.5836 165.916 30.3536C165.916 29.9982 166.008 29.6965 166.194 29.45C166.382 29.2018 166.606 29.0786 166.868 29.0786C167.129 29.0786 167.447 29.2072 167.821 29.4643C169.437 30.7545 171.445 31.4462 173.507 31.4232C175.001 31.4232 176.15 31.125 176.954 30.5322C177.755 29.9393 178.158 29.0893 178.158 27.9804C178.158 27.1107 177.784 26.4572 177.037 26.0215C176.29 25.5875 175.095 25.1715 173.451 24.7768C171.883 24.4197 170.593 24.0143 169.586 23.559C168.576 23.1054 167.787 22.4875 167.218 21.7054C166.648 20.9232 166.363 19.9304 166.363 18.7232C166.363 17.5161 166.675 16.4429 167.301 15.5036C167.927 14.5643 168.8 13.8322 169.921 13.309C171.042 12.784 172.321 12.5215 173.759 12.5215C175.007 12.5086 176.248 12.7097 177.429 13.1161C178.498 13.4793 179.474 14.077 180.286 14.8661C180.463 15.0146 180.605 15.2007 180.702 15.4109C180.799 15.6212 180.848 15.8504 180.847 16.0822C180.852 16.4042 180.748 16.7185 180.553 16.9732C180.357 17.2304 180.129 17.359 179.866 17.359C179.623 17.359 179.316 17.2304 178.942 16.9732C178.084 16.2804 177.275 15.7804 176.519 15.475C175.762 15.1679 174.852 15.0143 173.788 15.0143C172.349 15.0143 171.228 15.3268 170.425 15.9482C169.623 16.5715 169.22 17.4375 169.22 18.5447C169.22 19.4947 169.575 20.2125 170.284 20.6965C170.996 21.1822 172.134 21.6215 173.702 22.0161ZM161.572 33.825C161.394 33.824 161.217 33.7868 161.054 33.7157C160.89 33.6445 160.742 33.5408 160.619 33.4107L153.645 26.8822V32.3715C153.645 32.8465 153.514 33.2072 153.251 33.4554C152.977 33.7069 152.615 33.8396 152.244 33.825C151.868 33.838 151.502 33.7057 151.22 33.4554C150.951 33.2072 150.814 32.8465 150.814 32.3715V14.0643C150.814 13.5893 150.951 13.2286 151.22 12.9822C151.502 12.7305 151.868 12.5975 152.244 12.6107C152.654 12.6107 152.991 12.734 153.251 12.9822C153.514 13.2286 153.645 13.5893 153.645 14.0643V25.6965L160.032 19.3768C160.35 19.0786 160.657 18.9304 160.956 18.9304C161.311 18.9304 161.62 19.0697 161.881 19.3465C162.007 19.4756 162.106 19.6285 162.173 19.7964C162.241 19.9644 162.274 20.144 162.273 20.325C162.273 20.7018 162.115 21.0482 161.797 21.3643L156.809 26.2L162.301 31.334C162.638 31.6304 162.805 31.9965 162.805 32.4322C162.811 32.7929 162.681 33.1425 162.441 33.4107C162.336 33.5404 162.203 33.6448 162.053 33.7165C161.903 33.7881 161.738 33.8252 161.572 33.825ZM142.018 31.4822C142.579 31.4822 143.074 31.3929 143.503 31.2143C143.932 31.0375 144.372 30.8 144.819 30.5018C145.017 30.3694 145.223 30.2506 145.436 30.1465C145.61 30.0561 145.801 30.0055 145.997 29.9982C146.258 29.9982 146.472 30.1125 146.641 30.3393C146.815 30.5859 146.903 30.8834 146.893 31.1857C146.896 31.4525 146.823 31.7145 146.683 31.9411C146.494 32.2194 146.251 32.4567 145.969 32.6393C145.37 33.0531 144.707 33.3639 144.007 33.559C143.27 33.7754 142.506 33.8855 141.738 33.8857C140.411 33.8857 139.25 33.5786 138.251 32.9661C137.24 32.341 136.432 31.4332 135.926 30.3536C135.374 29.2268 135.099 27.9215 135.099 26.4375C135.099 24.934 135.383 23.609 135.952 22.4625C136.482 21.3605 137.313 20.4337 138.349 19.7911C139.376 19.159 140.552 18.8411 141.878 18.8411C142.588 18.8411 143.303 18.95 144.021 19.1679C144.741 19.3857 145.38 19.6822 145.94 20.059C146.538 20.4947 146.838 20.9982 146.838 21.5715C146.848 21.8737 146.759 22.1709 146.586 22.4179C146.514 22.5238 146.418 22.6103 146.305 22.6698C146.193 22.7293 146.067 22.7599 145.94 22.759C145.764 22.7568 145.591 22.7108 145.436 22.625C145.215 22.5029 145 22.3694 144.793 22.225C144.383 21.9405 143.946 21.697 143.489 21.4982C143.029 21.3191 142.539 21.2329 142.047 21.2447C140.777 21.2447 139.791 21.7 139.09 22.6107C138.391 23.5197 138.04 24.7857 138.04 26.409C138.04 28.0304 138.386 29.2822 139.078 30.1607C139.768 31.0411 140.748 31.4822 142.018 31.4822ZM128.166 32.9661C127.148 33.5786 125.966 33.8857 124.622 33.8857C123.276 33.8857 122.094 33.5786 121.078 32.9661C120.052 32.3445 119.233 31.4302 118.724 30.3393C118.172 29.2018 117.898 27.8822 117.898 26.3786C117.898 24.8554 118.172 23.525 118.724 22.3875C119.233 21.2968 120.052 20.383 121.078 19.7625C122.094 19.1482 123.276 18.8411 124.622 18.8411C125.966 18.8411 127.148 19.1482 128.166 19.7625C129.191 20.3836 130.009 21.2973 130.518 22.3875C131.069 23.525 131.344 24.8554 131.344 26.3786C131.344 27.8822 131.069 29.2018 130.518 30.3393C130.009 31.4298 129.19 32.3439 128.166 32.9661ZM127.479 22.5661C126.807 21.6857 125.854 21.2447 124.622 21.2447C123.389 21.2447 122.437 21.6857 121.764 22.5661C121.092 23.4465 120.755 24.7161 120.755 26.3786C120.755 28.0607 121.087 29.3357 121.75 30.2054C122.412 31.0768 123.37 31.5107 124.622 31.5107C125.872 31.5107 126.83 31.0768 127.493 30.2054C128.155 29.3357 128.487 28.0607 128.487 26.3786C128.487 24.7161 128.151 23.4465 127.479 22.5661ZM111.931 33.825C111.558 33.8387 111.193 33.7121 110.907 33.4697C110.638 33.2322 110.501 32.8768 110.501 32.4018V14.0643C110.501 13.5893 110.638 13.2286 110.907 12.9822C111.188 12.7305 111.555 12.5975 111.931 12.6107C112.34 12.6107 112.678 12.734 112.938 12.9822C113.201 13.2286 113.332 13.5893 113.332 14.0643V32.4018C113.332 32.8768 113.201 33.2322 112.938 33.4697C112.66 33.7132 112.299 33.8403 111.931 33.825ZM105.655 27.9804C105.655 29.7804 105.072 31.1804 103.905 32.1786C102.738 33.1786 101.108 33.6768 99.0163 33.6768H91.8717C91.423 33.6768 91.0736 33.5447 90.8217 33.2768C90.5698 33.0107 90.4439 32.65 90.4439 32.1947V14.2429C90.4439 13.7875 90.5698 13.4268 90.8217 13.1607C91.0736 12.8929 91.423 12.759 91.8717 12.759H98.7077C100.742 12.759 102.335 13.2393 103.484 14.1982C104.632 15.159 105.207 16.4982 105.207 18.2197C105.207 19.3268 104.932 20.2857 104.38 21.0965C103.83 21.909 103.059 22.5107 102.069 22.9072C103.208 23.2429 104.091 23.8465 104.717 24.7161C105.343 25.5875 105.655 26.675 105.655 27.9804ZM102.406 18.4857C102.406 17.3786 102.065 16.5572 101.382 16.0232C100.701 15.4893 99.6602 15.2215 98.2589 15.2215H93.273V21.809H98.2589C101.022 21.809 102.406 20.7018 102.406 18.4857ZM101.86 25.1465C101.177 24.5643 100.127 24.2715 98.7077 24.2715H93.273V31.2143H98.7077C100.146 31.2143 101.202 30.9375 101.874 30.384C102.546 29.8304 102.881 28.9697 102.881 27.8018C102.881 26.6161 102.541 25.7304 101.86 25.1465Z" fill="white"/>
</g>
<defs>
<clipPath id="clip0_203_6">
<rect width="243" height="50" fill="white"/>
</clipPath>
</defs>
</svg>
