<svg width="36" height="35" viewBox="0 0 36 35" fill="none" xmlns="http://www.w3.org/2000/svg">
<circle cx="18.3949" cy="17.4704" r="17.4704" fill="black"/>
<g clip-path="url(#clip0_2_710)">
<path d="M15.1132 26.2054C22.53 26.2054 26.5863 19.765 26.5863 14.18C26.5863 13.9968 26.5829 13.8145 26.5745 13.6339C27.3615 13.0369 28.0465 12.2927 28.586 11.4459C27.8634 11.7825 27.0856 12.0087 26.2701 12.1112C27.1023 11.5879 27.7421 10.7604 28.0432 9.77331C27.2637 10.2572 26.4014 10.6096 25.4831 10.799C24.7471 9.97756 23.6992 9.46387 22.54 9.46387C20.3128 9.46387 18.5071 11.3565 18.5071 13.69C18.5071 14.0214 18.5423 14.344 18.6117 14.6534C15.2604 14.4772 12.2889 12.795 10.3 10.2379C9.9538 10.8621 9.75391 11.5879 9.75391 12.362C9.75391 13.8285 10.4656 15.1224 11.5487 15.8798C10.8872 15.8588 10.2658 15.6677 9.72213 15.3512C9.72129 15.3687 9.72129 15.3863 9.72129 15.4047C9.72129 17.4516 11.1113 19.161 12.9563 19.5484C12.6176 19.6449 12.2613 19.6975 11.8933 19.6975C11.6332 19.6975 11.3806 19.6703 11.1356 19.6212C11.6491 21.2999 13.1378 22.5219 14.9025 22.557C13.5225 23.6904 11.7837 24.3663 9.89442 24.3663C9.56908 24.3663 9.24792 24.347 8.93262 24.3076C10.7174 25.5059 12.8359 26.2063 15.1141 26.2063" fill="url(#paint0_linear_2_710)"/>
</g>
<defs>
<linearGradient id="paint0_linear_2_710" x1="2.79094" y1="61.186" x2="32.7264" y2="58.5123" gradientUnits="userSpaceOnUse">
<stop stop-color="#797979"/>
<stop offset="0.02" stop-color="#919191"/>
<stop offset="0.07" stop-color="#B8B8B8"/>
<stop offset="0.11" stop-color="#D7D7D7"/>
<stop offset="0.15" stop-color="#EDEDED"/>
<stop offset="0.19" stop-color="#FAFAFA"/>
<stop offset="0.22" stop-color="white"/>
<stop offset="0.28" stop-color="#F9F9F9"/>
<stop offset="0.35" stop-color="#E9E9E9"/>
<stop offset="0.42" stop-color="#CFCFCF"/>
<stop offset="0.45" stop-color="#C2C2C2"/>
<stop offset="0.57" stop-color="#A3A3A3"/>
<stop offset="0.77" stop-color="#E4E4E4"/>
<stop offset="0.84" stop-color="white"/>
<stop offset="0.86" stop-color="#F9F9F9"/>
<stop offset="0.9" stop-color="#E9E9E9"/>
<stop offset="0.94" stop-color="#CECECE"/>
<stop offset="0.98" stop-color="#AAAAAA"/>
<stop offset="1" stop-color="#909090"/>
</linearGradient>
<clipPath id="clip0_2_710">
<rect width="19.6542" height="16.7424" fill="white" transform="translate(8.9317 9.46301)"/>
</clipPath>
</defs>
</svg>
